<svg xmlns="http://www.w3.org/2000/svg" width="24" height="24" viewBox="0 0 24 24">
    <path fill-rule="nonzero" d="M5.667 14.667h1.777v3.555h9.778V5.778H7.444v3.11H5.667v-3.11C5.667 4.796 6.463 4 7.444 4h9.778C18.204 4 19 4.796 19 5.778v12.444c0 .982-.796 1.778-1.778 1.778H7.444a1.778 1.778 0 0 1-1.777-1.778v-3.555zm6.27-3.555L10.59 9.654a.8.8 0 0 1 1.176-1.086l2.666 2.89a.8.8 0 0 1 0 1.085l-2.666 2.889a.8.8 0 0 1-1.176-1.086l1.346-1.458a.903.903 0 0 1-.047 0h-8a.889.889 0 1 1 0-1.777h8l.047.001zm-6.27 3.555h1.777v3.555h9.778V5.778H7.444v3.11H5.667v-3.11C5.667 4.796 6.463 4 7.444 4h9.778C18.204 4 19 4.796 19 5.778v12.444c0 .982-.796 1.778-1.778 1.778H7.444a1.778 1.778 0 0 1-1.777-1.778v-3.555z"/>
</svg>
